<svg xmlns="http://www.w3.org/2000/svg" viewBox="0 0 159.51 77.34"><defs><style>.cls-1{isolation:isolate;}.cls-2{mix-blend-mode:soft-light;opacity:0.8;}.cls-3{fill:#00d7ff;}.cls-4{fill:#ff63be;}.cls-5{fill:#fff;}.cls-6{fill:#ffd01f;}.cls-7{fill:#ffb700;}.cls-8{fill:#00aef2;}.cls-9{fill:#ffcc38;}</style></defs><g class="cls-1"><g id="BACKGROUND_2" data-name="BACKGROUND 2"><g class="cls-2"><path d="M158.16,68.37H57.48a1.34,1.34,0,0,0-1.35,1.23A1.3,1.3,0,0,0,57.41,71H158.23a1.3,1.3,0,0,0,1.28-1.37A1.34,1.34,0,0,0,158.16,68.37Z"/><path d="M50.92,70.9H2.6a1.28,1.28,0,0,1-1.28-1.28h0A1.28,1.28,0,0,1,2.6,68.33H50.92a1.28,1.28,0,0,1,1.28,1.29h0A1.28,1.28,0,0,1,50.92,70.9Z"/></g><path class="cls-3" d="M151,31.87h3.8a0,0,0,0,1,0,0v4.61a1.27,1.27,0,0,1-1.27,1.27h-1.26A1.27,1.27,0,0,1,151,36.48V31.87A0,0,0,0,1,151,31.87Z"/><path class="cls-4" d="M156.93,30.59a3.22,3.22,0,0,0-.65-3.69,3.29,3.29,0,0,0-3.87-.61l-.21.11a3.32,3.32,0,0,0-1.67,2.13l-.61,3-1.32.43.38,3.69,1.24-1.11,2-1.7,1.25.64a1.63,1.63,0,0,0,2.21-.59h0l.38-.64Z"/><path class="cls-3" d="M157.38,29.61l.14,0A3.66,3.66,0,0,0,155,25.24h0a3.65,3.65,0,0,0-4.65,2.88,15.07,15.07,0,0,0-.28,2.65l2.47-2.11.21.11A7.26,7.26,0,0,0,157.38,29.61Z"/><path class="cls-5" d="M154.54,32.06a.71.71,0,0,1-1,.25.72.72,0,0,1-.25-1"/><path d="M153.21,40.52,152.79,36a1.83,1.83,0,0,0-.48-1l-1.2-1.28-.89.76-1.62-2.58-3.16-1.16s-5.28,7.28-5.95,11.58l-.18,1.11,7.29,1.33,2.52-4.19,1.29-1.15.51,3.14a1.78,1.78,0,0,0,1.81,1.5h0a1.79,1.79,0,0,0,1.56-1l3.05-6.34-1.74-.8Z"/><path class="cls-6" d="M136.75,64.77l4.85-15.39s4.3-2.7,4.87-4.25l.13-.34-7.29-1.33-1,1.73a6.94,6.94,0,0,0-1.25,3.73l-.16,4.94-.73,1.87a27.2,27.2,0,0,0-1.38,6.61l-.16,2.43Z"/><path class="cls-7" d="M145.14,63.89l.11.88h2.27l1-9.09a3.47,3.47,0,0,0-.18-1.69l-1.73-9.2-3.19-.58-1.81,5.17,3.83,6A46.38,46.38,0,0,0,145.14,63.89Z"/><path class="cls-4" d="M152.72,29.7a.83.83,0,0,1-1.13.29.82.82,0,1,1,1.13-.29Z"/><polygon points="144.22 35.48 142.99 42.19 147.88 48.33 149.4 47.32 146.7 41.18 146.66 33.87 144.22 35.48"/><path class="cls-4" d="M157.34,36.74h0a2.36,2.36,0,0,0,.86-.77l.31-.45a.86.86,0,0,0-.2-1l-.83-.76.62-1.21a.32.32,0,0,0-.18-.46h0a.35.35,0,0,0-.37.11l-1,1.33-.1.11a2.61,2.61,0,0,0-.48.71h0a2.94,2.94,0,0,0-.29,1l-.05.53Z"/><path class="cls-4" d="M151.39,50h0a.35.35,0,0,0,.13-.47l-.75-1.31-.85-.1,1,1.75A.33.33,0,0,0,151.39,50Z"/><path class="cls-4" d="M150.93,50.63h0a.35.35,0,0,0,.13-.47l-1.14-2-.6.34,1.13,2A.35.35,0,0,0,150.93,50.63Z"/><path class="cls-4" d="M150.19,50.69h0a.37.37,0,0,0,.13-.48l-1-1.75-.6.34,1,1.76A.35.35,0,0,0,150.19,50.69Z"/><path class="cls-4" d="M149.11,50.2h0a.35.35,0,0,0,.13-.48l-.52-.92-.6.34.52.93A.36.36,0,0,0,149.11,50.2Z"/><path class="cls-4" d="M148.32,49.49,148,48.9l-.06-.65,1.57-.94h0a2.07,2.07,0,0,1,1.32,1l.05,0Z"/><path class="cls-5" d="M45.19,46.94a24.77,24.77,0,0,1-1.48,8.66,21.09,21.09,0,0,1-4.22,7l8.92,8.62-7.53,6.1L31.35,68a25.07,25.07,0,0,1-4.19,1.12,26.26,26.26,0,0,1-4.47.38q-10.13,0-16.41-6.37T0,46.94V37.37q0-9.78,6.27-16.18T22.61,14.8q10,0,16.3,6.39t6.28,16.18ZM32.88,37.3A15.37,15.37,0,0,0,30.19,28a8.84,8.84,0,0,0-7.58-3.66A8.91,8.91,0,0,0,15,27.93a15.49,15.49,0,0,0-2.65,9.37v9.64A15.54,15.54,0,0,0,15,56.37,9,9,0,0,0,22.69,60a8.75,8.75,0,0,0,7.52-3.65,15.6,15.6,0,0,0,2.67-9.43Z"/><path class="cls-5" d="M93.09,15.56V50.41q0,9.11-6,14.11t-15.83,5q-9.9,0-16-5T49.18,50.41V15.56H61.56V50.41q0,4.91,2.52,7.26T71.21,60c3,0,5.39-.78,7-2.34s2.47-4,2.47-7.27V15.56Z"/><path class="cls-5" d="M109.08,68.75H96.76V15.56h12.32Z"/><path class="cls-5" d="M128,59.26h24.22v9.49H112.83V63.2l23.78-38.14H112.72v-9.5h39.2V20.9Z"/><path d="M33.66,70.07l-.8,1.64h5.06a1.24,1.24,0,0,0-1.38-.92l-.61.1a.59.59,0,0,1-.54-.82H33.66Z"/><path d="M37.93,70.07l-.8,1.64h5.06a1.23,1.23,0,0,0-1.38-.92l-.6.1a.59.59,0,0,1-.55-.82H37.93Z"/><path class="cls-8" d="M37.4,70.22,32.92,58.7l-5.14-2.6L22,59.25l-1.63-2.51,6.36.71,8.53-1.93a2.12,2.12,0,0,1,1.33,1.63l3.85,13.07Z"/><path class="cls-3" d="M32.08,55.79a2.12,2.12,0,0,1,1.13,1.69l2.94,12.74h-2.8L29.23,59.35a46.69,46.69,0,0,1-8.79,1.28,3.48,3.48,0,0,1-3.3-3.3v-.59Z"/><path class="cls-9" d="M29.26,55.41l1.54-2.36-3.6-7.56a3.17,3.17,0,0,0-2.87-1.81H19.74a3.87,3.87,0,0,0-3.35,2l-4,6a1.71,1.71,0,0,0,.72,2.5l4,1.82v1.54l8.73-1-.23-8.19ZM16.09,52.59a.61.61,0,0,1-.25-.93l1.3-1.74v3.13Z"/><path class="cls-4" d="M26.29,37.14A3.55,3.55,0,0,0,23.59,34a3.64,3.64,0,0,0-4,1.6l-.14.23a3.61,3.61,0,0,0-.39,3l1.06,3.13v1.76l1.55.74,1.47-.74,0-1.9h1.41A1.8,1.8,0,0,0,26.33,40V38.62Z"/><path class="cls-5" d="M24.81,39.84a.8.8,0,1,1-1.59,0"/><path class="cls-4" d="M22.59,55.82h0a.39.39,0,0,0-.16-.52l-1.49-.77L20,55l2.12,1A.38.38,0,0,0,22.59,55.82Z"/><path class="cls-4" d="M22.54,56.68h0a.39.39,0,0,0-.16-.51L20.09,55l-.35.68L22,56.84A.38.38,0,0,0,22.54,56.68Z"/><path class="cls-4" d="M21.88,57.18h0a.38.38,0,0,0-.16-.52l-2-1-.36.67,2,1A.38.38,0,0,0,21.88,57.18Z"/><path class="cls-4" d="M20.59,57.36h0a.38.38,0,0,0-.16-.51l-1.05-.55L19,57l1,.55A.39.39,0,0,0,20.59,57.36Z"/><path class="cls-4" d="M19.43,57.19l-.49-.26a1,1,0,0,1-.31-.25l-.33-.41.9-1.82,0,0a2.33,2.33,0,0,1,1.86.18Z"/><path d="M21.44,32.86h0a4,4,0,0,1,4.84,2.51,2.73,2.73,0,0,1,.18.79l-1.55.1-.56-1-.24,1-2.71.19-1.78,4.22a12.73,12.73,0,0,1-1-2.39A4.1,4.1,0,0,1,21.44,32.86Z"/><path class="cls-4" d="M21.38,38.62a.73.73,0,1,1-.73-.72A.73.73,0,0,1,21.38,38.62Z"/><path d="M23.27,32.72a1.43,1.43,0,1,1-1.43-1.43A1.43,1.43,0,0,1,23.27,32.72Z"/><path d="M21.41,35.11V40a4,4,0,0,1-.57-2.81A7.38,7.38,0,0,1,21.41,35.11Z"/><path class="cls-5" d="M36.66,56.6H26.05a1.06,1.06,0,0,1,1.06-1.07h9.55Z"/><path d="M38.76,56.55H29.45a.88.88,0,0,1-.85-1.06l1.28-6a.87.87,0,0,1,.85-.68H40a.86.86,0,0,1,.85,1.05l-1.28,6A.87.87,0,0,1,38.76,56.55Z"/><path class="cls-5" d="M35.55,52.69a.81.81,0,1,1-.8-.81A.8.8,0,0,1,35.55,52.69Z"/><path class="cls-6" d="M63.6,4.36A4.4,4.4,0,0,0,59.17,0H55.65a4.33,4.33,0,1,0,0,8.65h2.23l2.77,1.07V8.5A4.34,4.34,0,0,0,63.6,4.36Z"/><path class="cls-3" d="M123,60.57a4.26,4.26,0,0,0,4.29,4.34h3.52a4.33,4.33,0,1,0,0-8.66h-2.22l-2.5-1v1.22A4.42,4.42,0,0,0,123,60.57Z"/><path class="cls-3" d="M26.63,25.33a4.15,4.15,0,0,1,4.23-4.27h3.52a4.33,4.33,0,1,1,0,8.65H32.15l-2.37.88V29.37A3.8,3.8,0,0,1,26.63,25.33Z"/><path class="cls-3" d="M104.32,22.14a2.4,2.4,0,0,1-.33,1.39,5,5,0,0,1-1.19,1.07,2.16,2.16,0,0,0-.71.7,1.75,1.75,0,0,0-.25.95,1.28,1.28,0,0,0,.3.89,1.09,1.09,0,0,0,.85.33,1.05,1.05,0,0,0,.74-.27,1.08,1.08,0,0,0,.32-.81h2.19v0a2.41,2.41,0,0,1-.88,2.08,3.82,3.82,0,0,1-2.38.69,3.68,3.68,0,0,1-2.5-.79,2.76,2.76,0,0,1-.9-2.16,2.56,2.56,0,0,1,.49-1.53,3.42,3.42,0,0,1,1.26-1.1,1.55,1.55,0,0,0,.58-.6,2.14,2.14,0,0,0,.15-.88Zm-2.24-2.77h2.23v1.8h-2.23Z"/><path class="cls-4" d="M54,49.34A2.48,2.48,0,0,1,54.3,48a4.91,4.91,0,0,1,1.2-1.07,2.23,2.23,0,0,0,.7-.7,1.75,1.75,0,0,0,.25-1,1.28,1.28,0,0,0-.3-.89A1.09,1.09,0,0,0,55.3,44a1,1,0,0,0-1.06,1.08H52.05v0A2.43,2.43,0,0,1,52.92,43a3.82,3.82,0,0,1,2.38-.7,3.68,3.68,0,0,1,2.5.8,2.77,2.77,0,0,1,.91,2.16,2.57,2.57,0,0,1-.5,1.53A3.42,3.42,0,0,1,57,47.86a1.55,1.55,0,0,0-.58.6,2.14,2.14,0,0,0-.15.88Zm2.24,2.77H54v-1.8h2.23Z"/><path class="cls-4" d="M54,49.34A2.48,2.48,0,0,1,54.3,48a4.91,4.91,0,0,1,1.2-1.07,2.23,2.23,0,0,0,.7-.7,1.75,1.75,0,0,0,.25-1,1.28,1.28,0,0,0-.3-.89A1.09,1.09,0,0,0,55.3,44a1,1,0,0,0-1.06,1.08H52.05v0A2.43,2.43,0,0,1,52.92,43a3.82,3.82,0,0,1,2.38-.7,3.68,3.68,0,0,1,2.5.8,2.77,2.77,0,0,1,.91,2.16,2.57,2.57,0,0,1-.5,1.53A3.42,3.42,0,0,1,57,47.86a1.55,1.55,0,0,0-.58.6,2.14,2.14,0,0,0-.15.88Zm2.24,2.77H54v-1.8h2.23Z"/><path d="M15.65,30.55H13.39V24.29h2.26Zm0,3.43H13.39V32.1h2.26Z"/><path d="M142.73,16.53h-2.26V10.27h2.26Zm0,3.44h-2.26V18.08h2.26Z"/><path d="M67.81,57.92l-.31,1.5-3.77-2h0a1.1,1.1,0,0,1,1.48-.16l.44.32a.53.53,0,0,0,.78-.43h0Z"/><path d="M74.88,57.92l.31,1.5,3.77-2h0a1.1,1.1,0,0,0-1.48-.16l-.45.32a.53.53,0,0,1-.77-.43h0Z"/><path class="cls-9" d="M76.63,43.52,75.52,33.47,71.7,32l-.36.14L71,32l-3.83,1.52-1.1,10.05a2.29,2.29,0,0,0,0,.37l.38,13.31,1.38.72a16.78,16.78,0,0,0,1.37-5.8,44,44,0,0,0,.1-7.78L71.34,37l2.07,7.37a44,44,0,0,0,.1,7.78,16.78,16.78,0,0,0,1.37,5.8l1.38-.72.38-13.31A2.29,2.29,0,0,0,76.63,43.52Z"/><path class="cls-4" d="M89.43,15.14l-2.91.93.2.64,2.92-.93a.34.34,0,0,0-.21-.64Z"/><path class="cls-4" d="M86,15.47l.23-.19a5.84,5.84,0,0,0,3.13-2.39l.06-.09a.54.54,0,0,1,.82-.1h0a.55.55,0,0,1,.13.62h0a5.87,5.87,0,0,1-3,3L86,17Z"/><path class="cls-4" d="M53.33,15.14l2.92.93-.21.64-2.91-.93a.34.34,0,0,1,.2-.64Z"/><path class="cls-4" d="M56.73,15.47l-.23-.19a5.88,5.88,0,0,1-3.13-2.39l0-.09a.55.55,0,0,0-.83-.1h0a.55.55,0,0,0-.13.62h0a5.87,5.87,0,0,0,3,3l1.47.66Z"/><path class="cls-3" d="M86.21,15.27l-13.4,4.36s-2.85,0-2.86,0L56.56,15.27l-.42,1.46,10.5,5L67,33.46h8.86l.32-11.71,10.49-5.06Z"/><path class="cls-4" d="M76,13.15A3.58,3.58,0,0,0,73.23,10a3.68,3.68,0,0,0-4.09,1.61l-.14.23a3.7,3.7,0,0,0-.39,3L69.68,18l-.05,1.54L71.31,21l1.5-1.41V17.8l1.4,0A1.82,1.82,0,0,0,76,16h0V14.65Z"/><path d="M69.26,27.81h0a1.21,1.21,0,0,0,1.2-1.21l-.07-12.78L76,12.33a2.63,2.63,0,0,0-.18-.77,3.88,3.88,0,0,0-4.72-2.45h0A4,4,0,0,0,68.05,13c0,.15,0,9.6,0,13.57A1.2,1.2,0,0,0,69.26,27.81Z"/><path class="cls-5" d="M74.46,15.89a.81.81,0,0,1-1.61,0"/><path class="cls-4" d="M71.49,14.61a1,1,0,1,1-.95-.95A.95.95,0,0,1,71.49,14.61Z"/><path d="M117.24,39.83v6.82a.83.83,0,0,0,.66.82.79.79,0,0,0,.92-.78v-2a.8.8,0,0,1,.8-.79c.37,0,.77.26.77.61v6.64a.83.83,0,0,0,.66.82.79.79,0,0,0,.92-.78l0-5.14a.8.8,0,0,1,.84-.8h0a.79.79,0,0,1,.75.79v1.56a.81.81,0,0,0,.66.82.79.79,0,0,0,.92-.77V38.47Z"/><path class="cls-4" d="M117.45,20.11h8l2.15-4.57A1.52,1.52,0,0,0,126,13.38h0a1.49,1.49,0,0,0-.71.26l-3.88,2.64-3.89-2.64a1.49,1.49,0,0,0-.7-.26h0a1.53,1.53,0,0,0-1.54,2.16Z"/><path class="cls-4" d="M108.53,41.53l2-2.24-.5-.45-2,2.24a.35.35,0,0,0,0,.48A.33.33,0,0,0,108.53,41.53Z"/><path class="cls-4" d="M111.29,39.56l-.1.28a5.78,5.78,0,0,0-1.51,3.61v.1a.54.54,0,0,1-.66.5h0a.53.53,0,0,1-.41-.47h0a5.76,5.76,0,0,1,1.07-4l.94-1.3Z"/><path class="cls-4" d="M134.71,41.53l-2-2.24.49-.45,2.05,2.24a.35.35,0,0,1,0,.48A.35.35,0,0,1,134.71,41.53Z"/><path class="cls-4" d="M132,39.56l.11.28a5.84,5.84,0,0,1,1.51,3.61v.1a.55.55,0,0,0,.66.5h0a.54.54,0,0,0,.42-.47h0a5.77,5.77,0,0,0-1.08-4l-.93-1.3Z"/><path class="cls-6" d="M133.06,38.81l-6.82-9.19-.84-9.51-.54-.16a12.14,12.14,0,0,0-6.76,0l-.65.18-.51,9.59-6.76,9.11,1.06,1,5.15-5.42a7.31,7.31,0,0,1,5.22-2.24h0a7.24,7.24,0,0,1,5.24,2.23L132,39.78Z"/><path class="cls-4" d="M117,38.53a3.48,3.48,0,0,0,2.64,3.08,3.56,3.56,0,0,0,4-1.56l.14-.22a3.55,3.55,0,0,0,.38-2.91l-1-2.58V32.51l-1.46-1.11-1.49,1.11,0,2h-1.38A1.76,1.76,0,0,0,117,36.25v.83Z"/><path class="cls-5" d="M118.47,36.38a.78.78,0,1,1,1.55,0"/><path d="M122.11,38.19l-5.24,1.12a2.73,2.73,0,0,0,.18.79,4,4,0,0,0,4.87,2.53,4.22,4.22,0,0,0,3.2-4,5.35,5.35,0,0,0-1.61-3.29Z"/><path class="cls-4" d="M121.47,37.57a.89.89,0,1,1,.89.89A.89.89,0,0,1,121.47,37.57Z"/><path d="M99.5,54.74c-.59-2-1.46-2.79-3.07-2.89-.71,0-6.66,0-7.37,0-1.61.1-2.35,1.11-3,3.1l-1.35,5.48a2.1,2.1,0,0,0,.51,1.71l1.83,2L87.94,57l1.58,8.61h7.06L97.75,57l1.15,7.17,1.79-2a2.1,2.1,0,0,0,.5-1.7Z"/><path class="cls-4" d="M88,45.65a3.57,3.57,0,0,1,2.71-3.16,3.67,3.67,0,0,1,4.05,1.61l.14.22a3.69,3.69,0,0,1,.39,3l-1.07,2.63v1.88L92.75,53l-1.54-1.14,0-2H89.77A1.81,1.81,0,0,1,88,48h0v-.83Z"/><path class="cls-5" d="M89.51,47.86a.8.8,0,0,0,1.6,0"/><path class="cls-3" d="M94.42,49.53l1.11-1.91a4.54,4.54,0,0,0,.35-.78v0a4.15,4.15,0,0,0-2.52-5.28l-.31-.09a4.11,4.11,0,0,0-5,2.59,2.8,2.8,0,0,0-.19.82l2.63,1.91a1.41,1.41,0,0,0,1.92-.24L93,45.9Z"/><path class="cls-4" d="M92.59,46.63a.92.92,0,1,0,.92-.91A.92.92,0,0,0,92.59,46.63Z"/><path class="cls-4" d="M103.81,65.55a2.05,2.05,0,0,0-2.3-.84l-4,1.06H88.37l-4-1.06a2.1,2.1,0,0,0-2.31.89,2.19,2.19,0,0,0,1,3.13L90.17,71H97.7l5.14-2.26A2.21,2.21,0,0,0,103.81,65.55Z"/><path d="M95.28,70.28l.53.59,5.1.06h0a1.25,1.25,0,0,0-1.38-1l-.62.07A2.69,2.69,0,0,1,97,69.12Z"/><path d="M87.45,70A2.31,2.31,0,0,1,87,70L86.37,70a1.24,1.24,0,0,0-1.38,1l5.18-.05Z"/><path class="cls-5" d="M97.78,68.1H88.11a.94.94,0,0,1-.94-.84l-.62-6a.93.93,0,0,1,.93-1H98.42a.94.94,0,0,1,.93,1l-.64,6A.93.93,0,0,1,97.78,68.1Z"/><path class="cls-6" d="M93.77,64.15a.83.83,0,1,1-.82-.83A.82.82,0,0,1,93.77,64.15Z"/><path d="M87.7,45.13c0-.23,0-.88.07-1.23.16-1.91,2.21-3.44,4.35-3.39a4.43,4.43,0,0,1,4,3,4.34,4.34,0,0,1,.23,1.16l0,.45-11,.63,0-.45Z"/></g></g></svg>