<svg xmlns="http://www.w3.org/2000/svg" viewBox="0 0 159.5 77.3"><defs><style>.cls-1{isolation:isolate;}.cls-2{mix-blend-mode:soft-light;opacity:0.8;}.cls-3{fill:#00d7ff;}.cls-4{fill:#ff63be;}.cls-5{fill:#fff;}.cls-6{fill:#ffd01f;}.cls-7{fill:#ffb700;}.cls-8{fill:#00aef2;}.cls-9{fill:#ffcc38;}</style></defs><g class="cls-1"><g id="BACKGROUND_2" data-name="BACKGROUND 2"><g class="cls-2"><path d="M158.2,68.4H57.5a1.3,1.3,0,1,0-.1,2.6H158.2a1.3,1.3,0,0,0,1.3-1.4A1.2,1.2,0,0,0,158.2,68.4Z"/><path d="M50.9,70.9H2.6a1.3,1.3,0,0,1-1.3-1.3h0a1.3,1.3,0,0,1,1.3-1.3H50.9a1.3,1.3,0,0,1,1.3,1.3h0A1.3,1.3,0,0,1,50.9,70.9Z"/></g><path class="cls-3" d="M151,31.9h3.8a0,0,0,0,1,0,0v4.6a1.3,1.3,0,0,1-1.3,1.3h-1.3a1.3,1.3,0,0,1-1.3-1.3V31.9A0,0,0,0,1,151,31.9Z"/><path class="cls-4" d="M156.9,30.6a3.3,3.3,0,0,0-.6-3.7,3.3,3.3,0,0,0-3.9-.6h-.2a3.6,3.6,0,0,0-1.7,2.1l-.6,3-1.3.4.4,3.7,1.2-1.1,2-1.7,1.3.6a1.6,1.6,0,0,0,2.2-.5h0l.4-.6Z"/><path class="cls-3" d="M157.4,29.6h.1a3.6,3.6,0,0,0-2.5-4.4h0a3.8,3.8,0,0,0-4.7,2.9,19.9,19.9,0,0,0-.2,2.7l2.4-2.1h.2A7.1,7.1,0,0,0,157.4,29.6Z"/><path class="cls-5" d="M154.5,32.1a.7.7,0,0,1-.9.2.7.7,0,0,1-.3-1"/><path d="M153.2,40.5l-.4-4.5a1.9,1.9,0,0,0-.5-1l-1.2-1.2-.9.7-1.6-2.6-3.2-1.1s-5.2,7.3-5.9,11.5l-.2,1.2,7.3,1.3,2.5-4.2,1.3-1.2.5,3.2a1.8,1.8,0,0,0,1.8,1.5h0a1.8,1.8,0,0,0,1.6-1l3-6.4-1.7-.8Z"/><path class="cls-6" d="M136.7,64.8l4.9-15.4s4.3-2.7,4.9-4.3v-.3l-7.3-1.3-1,1.7a7.1,7.1,0,0,0-1.2,3.7l-.2,5-.7,1.8a31.1,31.1,0,0,0-1.4,6.6v2.5Z"/><path class="cls-7" d="M145.1,63.9v.9h2.3l1-9.1a3.2,3.2,0,0,0-.2-1.7l-1.7-9.2-3.2-.6-1.8,5.2,3.8,6A55.4,55.4,0,0,0,145.1,63.9Z"/><path class="cls-4" d="M152.7,29.7a.8.8,0,1,1-1.4-.8.8.8,0,1,1,1.4.8Z"/><polygon points="144.2 35.5 143 42.2 147.9 48.3 149.4 47.3 146.7 41.2 146.7 33.9 144.2 35.5"/><path class="cls-4" d="M157.3,36.7h0a1.6,1.6,0,0,0,.9-.7l.3-.5a.8.8,0,0,0-.2-1l-.8-.7.6-1.2a.4.4,0,0,0-.2-.5h0c-.1,0-.3,0-.3.1l-1.1,1.4h-.1l-.5.7h0a3,3,0,0,0-.2,1v.5Z"/><path class="cls-4" d="M151.4,50h0c.2-.1.2-.3.1-.5l-.7-1.3h-.9l1,1.8A.4.4,0,0,0,151.4,50Z"/><path class="cls-4" d="M150.9,50.6h0a.4.4,0,0,0,.2-.4l-1.2-2.1-.6.4,1.2,2C150.5,50.7,150.8,50.7,150.9,50.6Z"/><path class="cls-4" d="M150.2,50.7h0c.2-.1.2-.3.1-.5l-1-1.7-.6.3,1,1.8A.4.4,0,0,0,150.2,50.7Z"/><path class="cls-4" d="M149.1,50.2h0c.2-.1.2-.3.1-.5l-.5-.9-.6.3.5,1A.4.4,0,0,0,149.1,50.2Z"/><path class="cls-4" d="M148.3,49.5l-.3-.6v-.7l1.6-.9h0a1.9,1.9,0,0,1,1.4,1.1h0Z"/><path class="cls-5" d="M45.2,46.9a24.9,24.9,0,0,1-1.5,8.7,21.4,21.4,0,0,1-4.2,7l8.9,8.6-7.5,6.1L31.3,68a19.1,19.1,0,0,1-4.1,1.1,22.8,22.8,0,0,1-4.5.4c-6.8,0-12.2-2.1-16.4-6.4S0,53.5,0,46.9V37.4c0-6.6,2.1-11.9,6.3-16.2s9.6-6.4,16.3-6.4,12.1,2.1,16.3,6.4,6.3,9.6,6.3,16.2ZM32.9,37.3a15.6,15.6,0,0,0-2.7-9.4,8.9,8.9,0,0,0-7.6-3.6A8.8,8.8,0,0,0,15,27.9a15.6,15.6,0,0,0-2.7,9.4v9.6A15.7,15.7,0,0,0,15,56.4,9,9,0,0,0,22.7,60a8.8,8.8,0,0,0,7.5-3.6,15.7,15.7,0,0,0,2.7-9.5Z"/><path class="cls-5" d="M93.1,15.6V50.4c0,6.1-2,10.8-6.1,14.1s-9.3,5-15.8,5-11.9-1.6-16-5-6-8-6-14.1V15.6H61.6V50.4c0,3.3.8,5.7,2.5,7.3A10.3,10.3,0,0,0,71.2,60c3.1,0,5.4-.8,7-2.3s2.5-4,2.5-7.3V15.6Z"/><path class="cls-5" d="M109.1,68.8H96.8V15.6h12.3Z"/><path class="cls-5" d="M128,59.3h24.2v9.5H112.8V63.2l23.8-38.1H112.7V15.6h39.2v5.3Z"/><path d="M33.7,70.1l-.8,1.6h5a1.2,1.2,0,0,0-1.4-.9h-.6a.5.5,0,0,1-.5-.8H33.7Z"/><path d="M37.9,70.1l-.8,1.6h5.1a1.3,1.3,0,0,0-1.4-.9h-.6a.5.5,0,0,1-.5-.8H37.9Z"/><path class="cls-8" d="M37.4,70.2,32.9,58.7l-5.1-2.6L22,59.2l-1.7-2.5,6.4.7,8.5-1.9a2.1,2.1,0,0,1,1.3,1.7l3.9,13Z"/><path class="cls-3" d="M32.1,55.8a2.3,2.3,0,0,1,1.1,1.7l2.9,12.7H33.3L29.2,59.4a49.3,49.3,0,0,1-8.8,1.2,3.5,3.5,0,0,1-3.3-3.3v-.6Z"/><path class="cls-9" d="M29.3,55.4l1.5-2.3-3.6-7.6a3.1,3.1,0,0,0-2.9-1.8H19.7a3.9,3.9,0,0,0-3.3,1.9l-4,6a1.7,1.7,0,0,0,.7,2.5l4,1.8v1.5l8.8-1-.3-8.2ZM16.1,52.6a.6.6,0,0,1-.3-.9l1.3-1.8v3.2Z"/><path class="cls-4" d="M26.3,37.1A3.6,3.6,0,0,0,23.6,34a3.5,3.5,0,0,0-4,1.6l-.2.2a3.9,3.9,0,0,0-.4,3l1.1,3.1v1.8l1.6.7,1.4-.7V41.8h1.5A1.8,1.8,0,0,0,26.3,40h0V37.1Z"/><path class="cls-5" d="M24.8,39.8a.7.7,0,0,1-.8.8.8.8,0,0,1-.8-.8"/><path class="cls-4" d="M22.6,55.8h0a.4.4,0,0,0-.2-.5l-1.5-.8-1,.5,2.2,1A.4.4,0,0,0,22.6,55.8Z"/><path class="cls-4" d="M22.5,56.7h0c.1-.2.1-.4-.1-.5l-2.3-1.3-.4.7L22,56.8C22.2,56.9,22.4,56.9,22.5,56.7Z"/><path class="cls-4" d="M21.9,57.2h0a.4.4,0,0,0-.2-.5l-2-1.1-.3.7,2,1C21.6,57.4,21.8,57.4,21.9,57.2Z"/><path class="cls-4" d="M20.6,57.4h0a.5.5,0,0,0-.2-.6l-1-.5L19,57l1.1.5C20.3,57.6,20.5,57.6,20.6,57.4Z"/><path class="cls-4" d="M19.4,57.2l-.5-.3-.3-.2-.3-.4.9-1.9h0a2.5,2.5,0,0,1,1.9.2Z"/><path d="M21.4,32.9h0a3.9,3.9,0,0,1,4.9,2.5,2.4,2.4,0,0,1,.2.8H24.9l-.6-1-.2,1-2.7.2-1.8,4.2a15.4,15.4,0,0,1-1-2.4A4,4,0,0,1,21.4,32.9Z"/><path class="cls-4" d="M21.4,38.6a.8.8,0,0,1-.7.8.8.8,0,0,1-.8-.8.7.7,0,0,1,.8-.7A.7.7,0,0,1,21.4,38.6Z"/><path d="M23.3,32.7a1.5,1.5,0,0,1-1.5,1.5,1.5,1.5,0,0,1-1.4-1.5,1.4,1.4,0,0,1,1.4-1.4A1.5,1.5,0,0,1,23.3,32.7Z"/><path d="M21.4,35.1V40a4,4,0,0,1-.6-2.8A7.3,7.3,0,0,1,21.4,35.1Z"/><path class="cls-5" d="M36.7,56.6H26a1.1,1.1,0,0,1,1.1-1.1h9.6Z"/><path d="M38.8,56.5H29.5a.9.9,0,0,1-.9-1l1.3-6a.8.8,0,0,1,.8-.7H40a.9.9,0,0,1,.9,1.1l-1.3,6A.8.8,0,0,1,38.8,56.5Z"/><path class="cls-5" d="M35.6,52.7a.9.9,0,0,1-.9.8.9.9,0,0,1-.8-.8.8.8,0,0,1,.8-.8A.8.8,0,0,1,35.6,52.7Z"/><path class="cls-6" d="M63.6,4.4A4.4,4.4,0,0,0,59.2,0H55.7a4.3,4.3,0,0,0-4.4,4.3,4.3,4.3,0,0,0,4.4,4.4h2.2l2.7,1V8.5A4.3,4.3,0,0,0,63.6,4.4Z"/><path class="cls-3" d="M123,60.6a4.3,4.3,0,0,0,4.3,4.3h3.6a4.3,4.3,0,0,0,0-8.6h-2.3l-2.5-1.1v1.3A4.4,4.4,0,0,0,123,60.6Z"/><path class="cls-3" d="M26.6,25.3a4.1,4.1,0,0,1,4.3-4.2h3.5a4.3,4.3,0,1,1,0,8.6H32.1l-2.3.9V29.4A3.9,3.9,0,0,1,26.6,25.3Z"/><path class="cls-3" d="M104.3,22.1a2.4,2.4,0,0,1-.3,1.4,4.4,4.4,0,0,1-1.2,1.1l-.7.7a1.6,1.6,0,0,0-.3.9,1.2,1.2,0,0,0,.3.9,1,1,0,0,0,.9.4.9.9,0,0,0,.7-.3,1.1,1.1,0,0,0,.3-.8h2.3a2.5,2.5,0,0,1-.9,2.1,3.6,3.6,0,0,1-2.4.7,3.7,3.7,0,0,1-2.5-.8,2.7,2.7,0,0,1-.9-2.2,3,3,0,0,1,.5-1.5,4.3,4.3,0,0,1,1.2-1.1l.6-.6a2,2,0,0,0,.2-.9Zm-2.2-2.7h2.2v1.8h-2.2Z"/><path class="cls-4" d="M54,49.3a2.9,2.9,0,0,1,.3-1.4,4.4,4.4,0,0,1,1.2-1,2.3,2.3,0,0,0,.7-.7,1.7,1.7,0,0,0,.3-1,1.6,1.6,0,0,0-.3-.9,1.2,1.2,0,0,0-.9-.3.9.9,0,0,0-.7.3,1.5,1.5,0,0,0-.4.8H52a2.3,2.3,0,0,1,.9-2.1,3.6,3.6,0,0,1,2.4-.7,3.3,3.3,0,0,1,2.5.8,2.6,2.6,0,0,1,.9,2.1,3,3,0,0,1-.5,1.6,3.6,3.6,0,0,1-1.3,1.1,1,1,0,0,0-.5.6,1.9,1.9,0,0,0-.2.8Zm2.2,2.8H54V50.3h2.2Z"/><path class="cls-4" d="M54,49.3a2.9,2.9,0,0,1,.3-1.4,4.4,4.4,0,0,1,1.2-1,2.3,2.3,0,0,0,.7-.7,1.7,1.7,0,0,0,.3-1,1.6,1.6,0,0,0-.3-.9,1.2,1.2,0,0,0-.9-.3.9.9,0,0,0-.7.3,1.5,1.5,0,0,0-.4.8H52a2.3,2.3,0,0,1,.9-2.1,3.6,3.6,0,0,1,2.4-.7,3.3,3.3,0,0,1,2.5.8,2.6,2.6,0,0,1,.9,2.1,3,3,0,0,1-.5,1.6,3.6,3.6,0,0,1-1.3,1.1,1,1,0,0,0-.5.6,1.9,1.9,0,0,0-.2.8Zm2.2,2.8H54V50.3h2.2Z"/><path d="M15.6,30.5H13.4V24.3h2.2Zm0,3.5H13.4V32.1h2.2Z"/><path d="M142.7,16.5h-2.2V10.3h2.2Zm0,3.5h-2.2V18.1h2.2Z"/><path d="M67.8,57.9l-.3,1.5-3.8-1.9h0a1.1,1.1,0,0,1,1.5-.2l.5.3a.4.4,0,0,0,.7-.4h0Z"/><path d="M74.9,57.9l.3,1.5L79,57.5h0a1.1,1.1,0,0,0-1.5-.2l-.5.3a.4.4,0,0,1-.7-.4h0Z"/><path class="cls-9" d="M76.6,43.5l-1.1-10L71.7,32H71l-3.8,1.5-1.1,10a.6.6,0,0,0-.1.4l.4,13.3,1.4.7a18.5,18.5,0,0,0,1.4-5.8,49.4,49.4,0,0,0,.1-7.8l2-7.3,2.1,7.3a49.4,49.4,0,0,0,.1,7.8c.4,4.1,1.4,5.8,1.4,5.8l1.4-.7.3-13.3Z"/><path class="cls-4" d="M89.4,15.1l-2.9,1,.2.6,2.9-.9a.5.5,0,0,0,.3-.4A.5.5,0,0,0,89.4,15.1Z"/><path class="cls-4" d="M86,15.5l.3-.2a6.1,6.1,0,0,0,3.1-2.4h0a.6.6,0,0,1,.9-.1h0a.7.7,0,0,1,.1.6h0a5.9,5.9,0,0,1-3,3l-1.4.6Z"/><path class="cls-4" d="M53.3,15.1l2.9,1-.2.6-2.9-.9a.4.4,0,0,1-.2-.4A.5.5,0,0,1,53.3,15.1Z"/><path class="cls-4" d="M56.7,15.5l-.2-.2a5.7,5.7,0,0,1-3.1-2.4h-.1a.5.5,0,0,0-.8-.1h0a.5.5,0,0,0-.1.6h0a5.7,5.7,0,0,0,2.9,3l1.5.6Z"/><path class="cls-3" d="M86.2,15.3,72.8,19.6H69.9L56.6,15.3l-.5,1.4,10.5,5.1.3,11.7h8.9l.3-11.7,10.5-5.1Z"/><path class="cls-4" d="M76,13.2A3.6,3.6,0,0,0,73.2,10a3.6,3.6,0,0,0-4.1,1.6v.2a3.5,3.5,0,0,0-.4,3L69.7,18v1.5L71.3,21l1.5-1.4V17.8h1.4A1.8,1.8,0,0,0,76,16h0V13.2Z"/><path d="M69.3,27.8h0a1.2,1.2,0,0,0,1.2-1.2V13.8L76,12.3a2.3,2.3,0,0,0-.2-.7,3.9,3.9,0,0,0-4.7-2.5h0a3.9,3.9,0,0,0-3,3.9V26.6A1.2,1.2,0,0,0,69.3,27.8Z"/><path class="cls-5" d="M74.5,15.9a.9.9,0,0,1-.8.8.8.8,0,0,1-.8-.8"/><path class="cls-4" d="M71.5,14.6a1,1,0,0,1-1,1,1,1,0,0,1-.9-1,.9.9,0,0,1,.9-.9A.9.9,0,0,1,71.5,14.6Z"/><path d="M117.2,39.8v6.8a1,1,0,0,0,.7.9.8.8,0,0,0,.9-.8v-2a.9.9,0,0,1,.8-.8c.4,0,.8.3.8.6v6.7a.9.9,0,0,0,.6.8.8.8,0,0,0,1-.8V46.1c-.1-.5.3-.8.8-.8h0a.7.7,0,0,1,.7.8v1.5a1,1,0,0,0,.7.9.8.8,0,0,0,.9-.8V38.5Z"/><path class="cls-4" d="M117.4,20.1h8l2.1-4.6a1.4,1.4,0,0,0-1.5-2.1h0l-.7.2-3.9,2.7-3.9-2.7-.7-.2h0a1.5,1.5,0,0,0-1.5,2.1Z"/><path class="cls-4" d="M108.5,41.5l2.1-2.2-.5-.5L108,41.1c-.1.1-.1.3.1.5A.2.2,0,0,0,108.5,41.5Z"/><path class="cls-4" d="M111.3,39.6v.2a5.5,5.5,0,0,0-1.5,3.6v.2c0,.3-.4.5-.7.4h0a.4.4,0,0,1-.4-.4h0a5.2,5.2,0,0,1,1.1-4l.9-1.3Z"/><path class="cls-4" d="M134.7,41.5l-2-2.2.5-.5,2,2.3a.4.4,0,0,1,0,.5A.3.3,0,0,1,134.7,41.5Z"/><path class="cls-4" d="M132,39.6v.2a6.1,6.1,0,0,1,1.5,3.6v.2a.4.4,0,0,0,.6.4h0a.4.4,0,0,0,.4-.4h0a5.6,5.6,0,0,0-1-4l-1-1.3Z"/><path class="cls-6" d="M133.1,38.8l-6.9-9.2-.8-9.5h-.5a12.1,12.1,0,0,0-6.8-.1l-.7.2-.5,9.6-6.7,9.1,1,1,5.2-5.4a7.3,7.3,0,0,1,5.2-2.2h0a7.1,7.1,0,0,1,5.2,2.2l5.2,5.4Z"/><path class="cls-4" d="M117,38.5a3.6,3.6,0,0,0,6.6,1.5l.2-.2a3.6,3.6,0,0,0,.3-2.9l-1-2.6V32.5l-1.5-1.1-1.5,1.1v2h-1.4a1.7,1.7,0,0,0-1.7,1.8h0v2.2Z"/><path class="cls-5" d="M118.5,36.4a.7.7,0,0,1,.7-.8.7.7,0,0,1,.8.8"/><path d="M122.1,38.2l-5.2,1.1a2.4,2.4,0,0,0,.2.8,3.9,3.9,0,0,0,4.8,2.5,4.1,4.1,0,0,0,3.2-3.9,5.3,5.3,0,0,0-1.6-3.3Z"/><path class="cls-4" d="M121.5,37.6a.9.9,0,1,1,.9.9A.9.9,0,0,1,121.5,37.6Z"/><path d="M99.5,54.7c-.6-1.9-1.5-2.8-3.1-2.9H89.1c-1.6.1-2.4,1.2-3,3.1l-1.4,5.5a2.1,2.1,0,0,0,.6,1.7l1.8,2.1.8-7.2,1.6,8.6h7.1L97.7,57l1.2,7.1,1.8-2a2.2,2.2,0,0,0,.5-1.7Z"/><path class="cls-4" d="M88,45.7a3.6,3.6,0,0,1,2.7-3.2,3.7,3.7,0,0,1,4.1,1.6v.2a3.5,3.5,0,0,1,.4,3l-1,2.6v1.9L92.7,53l-1.5-1.2v-2H89.8A1.8,1.8,0,0,1,88,48h0V45.7Z"/><path class="cls-5" d="M89.5,47.9a.9.9,0,0,0,.8.8.8.8,0,0,0,.8-.8"/><path class="cls-3" d="M94.4,49.5l1.1-1.9a2,2,0,0,0,.4-.8h0a4.3,4.3,0,0,0-2.5-5.3h-.3a4,4,0,0,0-5,2.5,3.2,3.2,0,0,0-.2.9l2.6,1.9a1.4,1.4,0,0,0,1.9-.3l.6-.6Z"/><path class="cls-4" d="M92.6,46.6a.9.9,0,1,0,.9-.9A.9.9,0,0,0,92.6,46.6Z"/><path class="cls-4" d="M103.8,65.5a2.2,2.2,0,0,0-2.3-.8l-4,1.1H88.4l-4-1.1a2.1,2.1,0,0,0-2.3.9,2.1,2.1,0,0,0,1,3.1L90.2,71h7.5l5.1-2.3A2.2,2.2,0,0,0,103.8,65.5Z"/><path d="M95.3,70.3l.5.6h5.1a1.2,1.2,0,0,0-1.4-.9h-.6a2.8,2.8,0,0,1-1.9-.9Z"/><path d="M87.4,70h-1a1.2,1.2,0,0,0-1.4.9h5.2Z"/><path class="cls-5" d="M97.8,68.1H88.1a.9.9,0,0,1-.9-.8l-.7-6.1a1,1,0,0,1,1-1H98.4a.9.9,0,0,1,.9,1l-.6,6.1A.9.9,0,0,1,97.8,68.1Z"/><path class="cls-6" d="M93.8,64.1a.9.9,0,0,1-.9.9.9.9,0,0,1-.8-.9.9.9,0,0,1,.8-.8A.9.9,0,0,1,93.8,64.1Z"/><path d="M87.7,45.1c0-.2.1-.8.1-1.2s2.2-3.4,4.3-3.4a4.4,4.4,0,0,1,4,3,4.5,4.5,0,0,1,.3,1.1v.5l-11,.6v-.4Z"/></g></g></svg>